%TF.GenerationSoftware,KiCad,Pcbnew,(6.0.0)*%
%TF.CreationDate,2022-02-18T15:42:34-07:00*%
%TF.ProjectId,SoilMoisture_Small,536f696c-4d6f-4697-9374-7572655f536d,0*%
%TF.SameCoordinates,Original*%
%TF.FileFunction,Soldermask,Top*%
%TF.FilePolarity,Negative*%
%FSLAX46Y46*%
G04 Gerber Fmt 4.6, Leading zero omitted, Abs format (unit mm)*
G04 Created by KiCad (PCBNEW (6.0.0)) date 2022-02-18 15:42:34*
%MOMM*%
%LPD*%
G01*
G04 APERTURE LIST*
G04 Aperture macros list*
%AMRoundRect*
0 Rectangle with rounded corners*
0 $1 Rounding radius*
0 $2 $3 $4 $5 $6 $7 $8 $9 X,Y pos of 4 corners*
0 Add a 4 corners polygon primitive as box body*
4,1,4,$2,$3,$4,$5,$6,$7,$8,$9,$2,$3,0*
0 Add four circle primitives for the rounded corners*
1,1,$1+$1,$2,$3*
1,1,$1+$1,$4,$5*
1,1,$1+$1,$6,$7*
1,1,$1+$1,$8,$9*
0 Add four rect primitives between the rounded corners*
20,1,$1+$1,$2,$3,$4,$5,0*
20,1,$1+$1,$4,$5,$6,$7,0*
20,1,$1+$1,$6,$7,$8,$9,0*
20,1,$1+$1,$8,$9,$2,$3,0*%
G04 Aperture macros list end*
%TA.AperFunction,Profile*%
%ADD10C,0.100000*%
%TD*%
%ADD11C,0.100000*%
%ADD12R,2.000000X4.500000*%
%ADD13C,4.000000*%
%ADD14R,1.600000X1.600000*%
%ADD15O,1.600000X1.600000*%
%ADD16RoundRect,0.250000X-0.250000X-0.475000X0.250000X-0.475000X0.250000X0.475000X-0.250000X0.475000X0*%
%ADD17C,2.600000*%
%ADD18R,3.000000X3.000000*%
%ADD19C,3.000000*%
%ADD20R,1.700000X1.700000*%
%ADD21O,1.700000X1.700000*%
%ADD22R,0.889000X1.473200*%
%ADD23RoundRect,0.250000X0.450000X-0.262500X0.450000X0.262500X-0.450000X0.262500X-0.450000X-0.262500X0*%
%ADD24RoundRect,0.243750X0.456250X-0.243750X0.456250X0.243750X-0.456250X0.243750X-0.456250X-0.243750X0*%
%ADD25RoundRect,0.250000X0.475000X-0.250000X0.475000X0.250000X-0.475000X0.250000X-0.475000X-0.250000X0*%
%ADD26RoundRect,0.250000X-0.262500X-0.450000X0.262500X-0.450000X0.262500X0.450000X-0.262500X0.450000X0*%
%ADD27C,1.200000*%
G04 APERTURE END LIST*
D10*
X84455000Y-71120000D02*
X153035000Y-71120000D01*
X153035000Y-71120000D02*
X153035000Y-129540000D01*
X153035000Y-129540000D02*
X84455000Y-129540000D01*
X84455000Y-129540000D02*
X84455000Y-71120000D01*
D11*
%TO.C,U1*%
X105740200Y-112478800D02*
X102539800Y-112478800D01*
X102539800Y-112478800D02*
X102539800Y-114663200D01*
X102539800Y-114663200D02*
X105740200Y-114663200D01*
X105740200Y-114663200D02*
X105740200Y-112478800D01*
G36*
X105740200Y-114663200D02*
G01*
X102539800Y-114663200D01*
X102539800Y-112478800D01*
X105740200Y-112478800D01*
X105740200Y-114663200D01*
G37*
X105740200Y-114663200D02*
X102539800Y-114663200D01*
X102539800Y-112478800D01*
X105740200Y-112478800D01*
X105740200Y-114663200D01*
%TD*%
D12*
%TO.C,Y1*%
X93037508Y-95774997D03*
X93037508Y-104274997D03*
%TD*%
D13*
%TO.C,REF\u002A\u002A*%
X86995000Y-73660000D03*
%TD*%
D14*
%TO.C,U2*%
X98117500Y-75885000D03*
D15*
X98117500Y-78425000D03*
X98117500Y-80965000D03*
X98117500Y-83505000D03*
X98117500Y-86045000D03*
X98117500Y-88585000D03*
X98117500Y-91125000D03*
X98117500Y-93665000D03*
X98117500Y-96205000D03*
X98117500Y-98745000D03*
X98117500Y-101285000D03*
X98117500Y-103825000D03*
X98117500Y-106365000D03*
X98117500Y-108905000D03*
X105737500Y-108905000D03*
X105737500Y-106365000D03*
X105737500Y-103825000D03*
X105737500Y-101285000D03*
X105737500Y-98745000D03*
X105737500Y-96205000D03*
X105737500Y-93665000D03*
X105737500Y-91125000D03*
X105737500Y-88585000D03*
X105737500Y-86045000D03*
X105737500Y-83505000D03*
X105737500Y-80965000D03*
X105737500Y-78425000D03*
X105737500Y-75885000D03*
%TD*%
D16*
%TO.C,C1*%
X100650000Y-124460000D03*
X102550000Y-124460000D03*
%TD*%
D17*
%TO.C,J1*%
X117170000Y-115100000D03*
X139370000Y-100350000D03*
X117170000Y-87100000D03*
D18*
X134620000Y-76200000D03*
D19*
X121920000Y-76200000D03*
%TD*%
D20*
%TO.C,J2*%
X147320000Y-91440000D03*
D21*
X147320000Y-93980000D03*
X147320000Y-96520000D03*
X147320000Y-99060000D03*
%TD*%
D22*
%TO.C,U1*%
X101840000Y-120109000D03*
X104140000Y-120109000D03*
X106440000Y-120109000D03*
%TD*%
D13*
%TO.C,REF\u002A\u002A*%
X150495000Y-127000000D03*
%TD*%
%TO.C,REF\u002A\u002A*%
X150495000Y-73660000D03*
%TD*%
D20*
%TO.C,J3*%
X93980000Y-116840000D03*
D21*
X96520000Y-116840000D03*
X93980000Y-119380000D03*
X96520000Y-119380000D03*
X93980000Y-121920000D03*
X96520000Y-121920000D03*
X93980000Y-124460000D03*
X96520000Y-124460000D03*
X93980000Y-127000000D03*
X96520000Y-127000000D03*
%TD*%
D16*
%TO.C,C2*%
X105730000Y-124460000D03*
X107630000Y-124460000D03*
%TD*%
D23*
%TO.C,R1*%
X95250000Y-79020000D03*
X95250000Y-77195000D03*
%TD*%
D13*
%TO.C,REF\u002A\u002A*%
X86995000Y-127000000D03*
%TD*%
D24*
%TO.C,D1*%
X89535000Y-84442500D03*
X89535000Y-82567500D03*
%TD*%
D16*
%TO.C,C4*%
X92087500Y-110185000D03*
X93987500Y-110185000D03*
%TD*%
D25*
%TO.C,C3*%
X108277500Y-94930000D03*
X108277500Y-93030000D03*
%TD*%
D26*
%TO.C,R2*%
X93067500Y-83505000D03*
X94892500Y-83505000D03*
%TD*%
D20*
%TO.C,J4*%
X147320000Y-104140000D03*
D21*
X147320000Y-106680000D03*
X147320000Y-109220000D03*
%TD*%
D16*
%TO.C,C5*%
X92087500Y-89865000D03*
X93987500Y-89865000D03*
%TD*%
D27*
%TO.C,SW1*%
X147320000Y-86360000D03*
X147320000Y-81280000D03*
%TD*%
D20*
%TO.C,J5*%
X147320000Y-114300000D03*
D21*
X147320000Y-116840000D03*
%TD*%
M02*
