%TF.GenerationSoftware,KiCad,Pcbnew,(6.0.0)*%
%TF.CreationDate,2022-02-18T15:42:34-07:00*%
%TF.ProjectId,SoilMoisture_Small,536f696c-4d6f-4697-9374-7572655f536d,0*%
%TF.SameCoordinates,Original*%
%TF.FileFunction,Legend,Top*%
%TF.FilePolarity,Positive*%
%FSLAX46Y46*%
G04 Gerber Fmt 4.6, Leading zero omitted, Abs format (unit mm)*
G04 Created by KiCad (PCBNEW (6.0.0)) date 2022-02-18 15:42:34*
%MOMM*%
%LPD*%
G01*
G04 APERTURE LIST*
%TA.AperFunction,Profile*%
%ADD10C,0.100000*%
%TD*%
%ADD11C,0.127000*%
%ADD12C,0.150000*%
%ADD13C,0.120000*%
G04 APERTURE END LIST*
D10*
X84455000Y-71120000D02*
X153035000Y-71120000D01*
X153035000Y-71120000D02*
X153035000Y-129540000D01*
X153035000Y-129540000D02*
X84455000Y-129540000D01*
X84455000Y-129540000D02*
X84455000Y-71120000D01*
D11*
X88835238Y-94330238D02*
X88787619Y-94473095D01*
X88787619Y-94711190D01*
X88835238Y-94806428D01*
X88882857Y-94854047D01*
X88978095Y-94901666D01*
X89073333Y-94901666D01*
X89168571Y-94854047D01*
X89216190Y-94806428D01*
X89263809Y-94711190D01*
X89311428Y-94520714D01*
X89359047Y-94425476D01*
X89406666Y-94377857D01*
X89501904Y-94330238D01*
X89597142Y-94330238D01*
X89692380Y-94377857D01*
X89740000Y-94425476D01*
X89787619Y-94520714D01*
X89787619Y-94758809D01*
X89740000Y-94901666D01*
X88787619Y-95473095D02*
X88835238Y-95377857D01*
X88882857Y-95330238D01*
X88978095Y-95282619D01*
X89263809Y-95282619D01*
X89359047Y-95330238D01*
X89406666Y-95377857D01*
X89454285Y-95473095D01*
X89454285Y-95615952D01*
X89406666Y-95711190D01*
X89359047Y-95758809D01*
X89263809Y-95806428D01*
X88978095Y-95806428D01*
X88882857Y-95758809D01*
X88835238Y-95711190D01*
X88787619Y-95615952D01*
X88787619Y-95473095D01*
X88787619Y-96235000D02*
X89454285Y-96235000D01*
X89787619Y-96235000D02*
X89740000Y-96187380D01*
X89692380Y-96235000D01*
X89740000Y-96282619D01*
X89787619Y-96235000D01*
X89692380Y-96235000D01*
X88787619Y-96854047D02*
X88835238Y-96758809D01*
X88930476Y-96711190D01*
X89787619Y-96711190D01*
X88787619Y-97996904D02*
X89787619Y-97996904D01*
X89073333Y-98330238D01*
X89787619Y-98663571D01*
X88787619Y-98663571D01*
X88787619Y-99282619D02*
X88835238Y-99187380D01*
X88882857Y-99139761D01*
X88978095Y-99092142D01*
X89263809Y-99092142D01*
X89359047Y-99139761D01*
X89406666Y-99187380D01*
X89454285Y-99282619D01*
X89454285Y-99425476D01*
X89406666Y-99520714D01*
X89359047Y-99568333D01*
X89263809Y-99615952D01*
X88978095Y-99615952D01*
X88882857Y-99568333D01*
X88835238Y-99520714D01*
X88787619Y-99425476D01*
X88787619Y-99282619D01*
X88787619Y-100044523D02*
X89454285Y-100044523D01*
X89787619Y-100044523D02*
X89740000Y-99996904D01*
X89692380Y-100044523D01*
X89740000Y-100092142D01*
X89787619Y-100044523D01*
X89692380Y-100044523D01*
X88835238Y-100473095D02*
X88787619Y-100568333D01*
X88787619Y-100758809D01*
X88835238Y-100854047D01*
X88930476Y-100901666D01*
X88978095Y-100901666D01*
X89073333Y-100854047D01*
X89120952Y-100758809D01*
X89120952Y-100615952D01*
X89168571Y-100520714D01*
X89263809Y-100473095D01*
X89311428Y-100473095D01*
X89406666Y-100520714D01*
X89454285Y-100615952D01*
X89454285Y-100758809D01*
X89406666Y-100854047D01*
X89454285Y-101758809D02*
X88787619Y-101758809D01*
X89454285Y-101330238D02*
X88930476Y-101330238D01*
X88835238Y-101377857D01*
X88787619Y-101473095D01*
X88787619Y-101615952D01*
X88835238Y-101711190D01*
X88882857Y-101758809D01*
X89454285Y-102092142D02*
X89454285Y-102473095D01*
X89787619Y-102235000D02*
X88930476Y-102235000D01*
X88835238Y-102282619D01*
X88787619Y-102377857D01*
X88787619Y-102473095D01*
X88787619Y-102806428D02*
X89454285Y-102806428D01*
X89263809Y-102806428D02*
X89359047Y-102854047D01*
X89406666Y-102901666D01*
X89454285Y-102996904D01*
X89454285Y-103092142D01*
X88835238Y-103806428D02*
X88787619Y-103711190D01*
X88787619Y-103520714D01*
X88835238Y-103425476D01*
X88930476Y-103377857D01*
X89311428Y-103377857D01*
X89406666Y-103425476D01*
X89454285Y-103520714D01*
X89454285Y-103711190D01*
X89406666Y-103806428D01*
X89311428Y-103854047D01*
X89216190Y-103854047D01*
X89120952Y-103377857D01*
X88787619Y-105044523D02*
X89787619Y-105044523D01*
X89073333Y-105377857D01*
X89787619Y-105711190D01*
X88787619Y-105711190D01*
X88787619Y-106330238D02*
X88835238Y-106235000D01*
X88882857Y-106187380D01*
X88978095Y-106139761D01*
X89263809Y-106139761D01*
X89359047Y-106187380D01*
X89406666Y-106235000D01*
X89454285Y-106330238D01*
X89454285Y-106473095D01*
X89406666Y-106568333D01*
X89359047Y-106615952D01*
X89263809Y-106663571D01*
X88978095Y-106663571D01*
X88882857Y-106615952D01*
X88835238Y-106568333D01*
X88787619Y-106473095D01*
X88787619Y-106330238D01*
X89454285Y-107092142D02*
X88787619Y-107092142D01*
X89359047Y-107092142D02*
X89406666Y-107139761D01*
X89454285Y-107235000D01*
X89454285Y-107377857D01*
X89406666Y-107473095D01*
X89311428Y-107520714D01*
X88787619Y-107520714D01*
X88787619Y-107996904D02*
X89454285Y-107996904D01*
X89787619Y-107996904D02*
X89740000Y-107949285D01*
X89692380Y-107996904D01*
X89740000Y-108044523D01*
X89787619Y-107996904D01*
X89692380Y-107996904D01*
X89454285Y-108330238D02*
X89454285Y-108711190D01*
X89787619Y-108473095D02*
X88930476Y-108473095D01*
X88835238Y-108520714D01*
X88787619Y-108615952D01*
X88787619Y-108711190D01*
X88787619Y-109187380D02*
X88835238Y-109092142D01*
X88882857Y-109044523D01*
X88978095Y-108996904D01*
X89263809Y-108996904D01*
X89359047Y-109044523D01*
X89406666Y-109092142D01*
X89454285Y-109187380D01*
X89454285Y-109330238D01*
X89406666Y-109425476D01*
X89359047Y-109473095D01*
X89263809Y-109520714D01*
X88978095Y-109520714D01*
X88882857Y-109473095D01*
X88835238Y-109425476D01*
X88787619Y-109330238D01*
X88787619Y-109187380D01*
X88787619Y-109949285D02*
X89454285Y-109949285D01*
X89263809Y-109949285D02*
X89359047Y-109996904D01*
X89406666Y-110044523D01*
X89454285Y-110139761D01*
X89454285Y-110235000D01*
X87177619Y-96068333D02*
X88177619Y-96068333D01*
X88177619Y-96306428D01*
X88130000Y-96449285D01*
X88034761Y-96544523D01*
X87939523Y-96592142D01*
X87749047Y-96639761D01*
X87606190Y-96639761D01*
X87415714Y-96592142D01*
X87320476Y-96544523D01*
X87225238Y-96449285D01*
X87177619Y-96306428D01*
X87177619Y-96068333D01*
X87225238Y-97449285D02*
X87177619Y-97354047D01*
X87177619Y-97163571D01*
X87225238Y-97068333D01*
X87320476Y-97020714D01*
X87701428Y-97020714D01*
X87796666Y-97068333D01*
X87844285Y-97163571D01*
X87844285Y-97354047D01*
X87796666Y-97449285D01*
X87701428Y-97496904D01*
X87606190Y-97496904D01*
X87510952Y-97020714D01*
X87844285Y-97830238D02*
X87177619Y-98068333D01*
X87844285Y-98306428D01*
X87701428Y-99782619D02*
X87653809Y-99925476D01*
X87606190Y-99973095D01*
X87510952Y-100020714D01*
X87368095Y-100020714D01*
X87272857Y-99973095D01*
X87225238Y-99925476D01*
X87177619Y-99830238D01*
X87177619Y-99449285D01*
X88177619Y-99449285D01*
X88177619Y-99782619D01*
X88130000Y-99877857D01*
X88082380Y-99925476D01*
X87987142Y-99973095D01*
X87891904Y-99973095D01*
X87796666Y-99925476D01*
X87749047Y-99877857D01*
X87701428Y-99782619D01*
X87701428Y-99449285D01*
X87177619Y-100592142D02*
X87225238Y-100496904D01*
X87272857Y-100449285D01*
X87368095Y-100401666D01*
X87653809Y-100401666D01*
X87749047Y-100449285D01*
X87796666Y-100496904D01*
X87844285Y-100592142D01*
X87844285Y-100735000D01*
X87796666Y-100830238D01*
X87749047Y-100877857D01*
X87653809Y-100925476D01*
X87368095Y-100925476D01*
X87272857Y-100877857D01*
X87225238Y-100830238D01*
X87177619Y-100735000D01*
X87177619Y-100592142D01*
X87177619Y-101782619D02*
X87701428Y-101782619D01*
X87796666Y-101735000D01*
X87844285Y-101639761D01*
X87844285Y-101449285D01*
X87796666Y-101354047D01*
X87225238Y-101782619D02*
X87177619Y-101687380D01*
X87177619Y-101449285D01*
X87225238Y-101354047D01*
X87320476Y-101306428D01*
X87415714Y-101306428D01*
X87510952Y-101354047D01*
X87558571Y-101449285D01*
X87558571Y-101687380D01*
X87606190Y-101782619D01*
X87177619Y-102258809D02*
X87844285Y-102258809D01*
X87653809Y-102258809D02*
X87749047Y-102306428D01*
X87796666Y-102354047D01*
X87844285Y-102449285D01*
X87844285Y-102544523D01*
X87177619Y-103306428D02*
X88177619Y-103306428D01*
X87225238Y-103306428D02*
X87177619Y-103211190D01*
X87177619Y-103020714D01*
X87225238Y-102925476D01*
X87272857Y-102877857D01*
X87368095Y-102830238D01*
X87653809Y-102830238D01*
X87749047Y-102877857D01*
X87796666Y-102925476D01*
X87844285Y-103020714D01*
X87844285Y-103211190D01*
X87796666Y-103306428D01*
X87177619Y-105115952D02*
X87653809Y-104782619D01*
X87177619Y-104544523D02*
X88177619Y-104544523D01*
X88177619Y-104925476D01*
X88130000Y-105020714D01*
X88082380Y-105068333D01*
X87987142Y-105115952D01*
X87844285Y-105115952D01*
X87749047Y-105068333D01*
X87701428Y-105020714D01*
X87653809Y-104925476D01*
X87653809Y-104544523D01*
X87225238Y-105925476D02*
X87177619Y-105830238D01*
X87177619Y-105639761D01*
X87225238Y-105544523D01*
X87320476Y-105496904D01*
X87701428Y-105496904D01*
X87796666Y-105544523D01*
X87844285Y-105639761D01*
X87844285Y-105830238D01*
X87796666Y-105925476D01*
X87701428Y-105973095D01*
X87606190Y-105973095D01*
X87510952Y-105496904D01*
X87844285Y-106306428D02*
X87177619Y-106544523D01*
X87844285Y-106782619D01*
X87177619Y-108449285D02*
X87177619Y-107877857D01*
X87177619Y-108163571D02*
X88177619Y-108163571D01*
X88034761Y-108068333D01*
X87939523Y-107973095D01*
X87891904Y-107877857D01*
X85567619Y-90687380D02*
X86567619Y-90687380D01*
X86567619Y-90925476D01*
X86520000Y-91068333D01*
X86424761Y-91163571D01*
X86329523Y-91211190D01*
X86139047Y-91258809D01*
X85996190Y-91258809D01*
X85805714Y-91211190D01*
X85710476Y-91163571D01*
X85615238Y-91068333D01*
X85567619Y-90925476D01*
X85567619Y-90687380D01*
X85567619Y-92115952D02*
X86091428Y-92115952D01*
X86186666Y-92068333D01*
X86234285Y-91973095D01*
X86234285Y-91782619D01*
X86186666Y-91687380D01*
X85615238Y-92115952D02*
X85567619Y-92020714D01*
X85567619Y-91782619D01*
X85615238Y-91687380D01*
X85710476Y-91639761D01*
X85805714Y-91639761D01*
X85900952Y-91687380D01*
X85948571Y-91782619D01*
X85948571Y-92020714D01*
X85996190Y-92115952D01*
X86234285Y-92496904D02*
X85567619Y-92735000D01*
X86234285Y-92973095D01*
X85567619Y-93354047D02*
X86234285Y-93354047D01*
X86567619Y-93354047D02*
X86520000Y-93306428D01*
X86472380Y-93354047D01*
X86520000Y-93401666D01*
X86567619Y-93354047D01*
X86472380Y-93354047D01*
X85567619Y-94258809D02*
X86567619Y-94258809D01*
X85615238Y-94258809D02*
X85567619Y-94163571D01*
X85567619Y-93973095D01*
X85615238Y-93877857D01*
X85662857Y-93830238D01*
X85758095Y-93782619D01*
X86043809Y-93782619D01*
X86139047Y-93830238D01*
X86186666Y-93877857D01*
X86234285Y-93973095D01*
X86234285Y-94163571D01*
X86186666Y-94258809D01*
X85567619Y-95496904D02*
X86567619Y-95496904D01*
X86567619Y-95877857D01*
X86520000Y-95973095D01*
X86472380Y-96020714D01*
X86377142Y-96068333D01*
X86234285Y-96068333D01*
X86139047Y-96020714D01*
X86091428Y-95973095D01*
X86043809Y-95877857D01*
X86043809Y-95496904D01*
X85567619Y-96925476D02*
X86091428Y-96925476D01*
X86186666Y-96877857D01*
X86234285Y-96782619D01*
X86234285Y-96592142D01*
X86186666Y-96496904D01*
X85615238Y-96925476D02*
X85567619Y-96830238D01*
X85567619Y-96592142D01*
X85615238Y-96496904D01*
X85710476Y-96449285D01*
X85805714Y-96449285D01*
X85900952Y-96496904D01*
X85948571Y-96592142D01*
X85948571Y-96830238D01*
X85996190Y-96925476D01*
X85567619Y-97401666D02*
X86234285Y-97401666D01*
X86043809Y-97401666D02*
X86139047Y-97449285D01*
X86186666Y-97496904D01*
X86234285Y-97592142D01*
X86234285Y-97687380D01*
X85567619Y-98449285D02*
X86567619Y-98449285D01*
X85615238Y-98449285D02*
X85567619Y-98354047D01*
X85567619Y-98163571D01*
X85615238Y-98068333D01*
X85662857Y-98020714D01*
X85758095Y-97973095D01*
X86043809Y-97973095D01*
X86139047Y-98020714D01*
X86186666Y-98068333D01*
X86234285Y-98163571D01*
X86234285Y-98354047D01*
X86186666Y-98449285D01*
X85615238Y-99306428D02*
X85567619Y-99211190D01*
X85567619Y-99020714D01*
X85615238Y-98925476D01*
X85710476Y-98877857D01*
X86091428Y-98877857D01*
X86186666Y-98925476D01*
X86234285Y-99020714D01*
X86234285Y-99211190D01*
X86186666Y-99306428D01*
X86091428Y-99354047D01*
X85996190Y-99354047D01*
X85900952Y-98877857D01*
X85567619Y-99925476D02*
X85615238Y-99830238D01*
X85710476Y-99782619D01*
X86567619Y-99782619D01*
X85567619Y-100449285D02*
X85615238Y-100354047D01*
X85710476Y-100306428D01*
X86567619Y-100306428D01*
X85948571Y-101592142D02*
X85948571Y-102354047D01*
X85567619Y-103592142D02*
X86567619Y-103592142D01*
X85567619Y-104163571D01*
X86567619Y-104163571D01*
X85853333Y-104592142D02*
X85853333Y-105068333D01*
X85567619Y-104496904D02*
X86567619Y-104830238D01*
X85567619Y-105163571D01*
X85567619Y-105496904D02*
X86567619Y-105496904D01*
X86567619Y-105830238D02*
X86567619Y-106401666D01*
X85567619Y-106115952D02*
X86567619Y-106115952D01*
X86567619Y-107687380D02*
X86567619Y-107782619D01*
X86520000Y-107877857D01*
X86472380Y-107925476D01*
X86377142Y-107973095D01*
X86186666Y-108020714D01*
X85948571Y-108020714D01*
X85758095Y-107973095D01*
X85662857Y-107925476D01*
X85615238Y-107877857D01*
X85567619Y-107782619D01*
X85567619Y-107687380D01*
X85615238Y-107592142D01*
X85662857Y-107544523D01*
X85758095Y-107496904D01*
X85948571Y-107449285D01*
X86186666Y-107449285D01*
X86377142Y-107496904D01*
X86472380Y-107544523D01*
X86520000Y-107592142D01*
X86567619Y-107687380D01*
X86472380Y-108401666D02*
X86520000Y-108449285D01*
X86567619Y-108544523D01*
X86567619Y-108782619D01*
X86520000Y-108877857D01*
X86472380Y-108925476D01*
X86377142Y-108973095D01*
X86281904Y-108973095D01*
X86139047Y-108925476D01*
X85567619Y-108354047D01*
X85567619Y-108973095D01*
X86615238Y-110115952D02*
X85329523Y-109258809D01*
X86472380Y-110401666D02*
X86520000Y-110449285D01*
X86567619Y-110544523D01*
X86567619Y-110782619D01*
X86520000Y-110877857D01*
X86472380Y-110925476D01*
X86377142Y-110973095D01*
X86281904Y-110973095D01*
X86139047Y-110925476D01*
X85567619Y-110354047D01*
X85567619Y-110973095D01*
X86567619Y-111592142D02*
X86567619Y-111687380D01*
X86520000Y-111782619D01*
X86472380Y-111830238D01*
X86377142Y-111877857D01*
X86186666Y-111925476D01*
X85948571Y-111925476D01*
X85758095Y-111877857D01*
X85662857Y-111830238D01*
X85615238Y-111782619D01*
X85567619Y-111687380D01*
X85567619Y-111592142D01*
X85615238Y-111496904D01*
X85662857Y-111449285D01*
X85758095Y-111401666D01*
X85948571Y-111354047D01*
X86186666Y-111354047D01*
X86377142Y-111401666D01*
X86472380Y-111449285D01*
X86520000Y-111496904D01*
X86567619Y-111592142D01*
X86472380Y-112306428D02*
X86520000Y-112354047D01*
X86567619Y-112449285D01*
X86567619Y-112687380D01*
X86520000Y-112782619D01*
X86472380Y-112830238D01*
X86377142Y-112877857D01*
X86281904Y-112877857D01*
X86139047Y-112830238D01*
X85567619Y-112258809D01*
X85567619Y-112877857D01*
X86472380Y-113258809D02*
X86520000Y-113306428D01*
X86567619Y-113401666D01*
X86567619Y-113639761D01*
X86520000Y-113735000D01*
X86472380Y-113782619D01*
X86377142Y-113830238D01*
X86281904Y-113830238D01*
X86139047Y-113782619D01*
X85567619Y-113211190D01*
X85567619Y-113830238D01*
D12*
%TO.C,Y1*%
X92868817Y-92051187D02*
X92868817Y-92527377D01*
X92535484Y-91527377D02*
X92868817Y-92051187D01*
X93202150Y-91527377D01*
X94059293Y-92527377D02*
X93487865Y-92527377D01*
X93773579Y-92527377D02*
X93773579Y-91527377D01*
X93678341Y-91670235D01*
X93583103Y-91765473D01*
X93487865Y-91813092D01*
%TO.C,U2*%
X101165595Y-73007380D02*
X101165595Y-73816904D01*
X101213214Y-73912142D01*
X101260833Y-73959761D01*
X101356071Y-74007380D01*
X101546547Y-74007380D01*
X101641785Y-73959761D01*
X101689404Y-73912142D01*
X101737023Y-73816904D01*
X101737023Y-73007380D01*
X102165595Y-73102619D02*
X102213214Y-73055000D01*
X102308452Y-73007380D01*
X102546547Y-73007380D01*
X102641785Y-73055000D01*
X102689404Y-73102619D01*
X102737023Y-73197857D01*
X102737023Y-73293095D01*
X102689404Y-73435952D01*
X102117976Y-74007380D01*
X102737023Y-74007380D01*
%TO.C,C1*%
X101433333Y-123137142D02*
X101385714Y-123184761D01*
X101242857Y-123232380D01*
X101147619Y-123232380D01*
X101004761Y-123184761D01*
X100909523Y-123089523D01*
X100861904Y-122994285D01*
X100814285Y-122803809D01*
X100814285Y-122660952D01*
X100861904Y-122470476D01*
X100909523Y-122375238D01*
X101004761Y-122280000D01*
X101147619Y-122232380D01*
X101242857Y-122232380D01*
X101385714Y-122280000D01*
X101433333Y-122327619D01*
X102385714Y-123232380D02*
X101814285Y-123232380D01*
X102100000Y-123232380D02*
X102100000Y-122232380D01*
X102004761Y-122375238D01*
X101909523Y-122470476D01*
X101814285Y-122518095D01*
%TO.C,J1*%
X109942380Y-100663333D02*
X110656666Y-100663333D01*
X110799523Y-100710952D01*
X110894761Y-100806190D01*
X110942380Y-100949047D01*
X110942380Y-101044285D01*
X110942380Y-99663333D02*
X110942380Y-100234761D01*
X110942380Y-99949047D02*
X109942380Y-99949047D01*
X110085238Y-100044285D01*
X110180476Y-100139523D01*
X110228095Y-100234761D01*
%TO.C,J2*%
X146986666Y-88562380D02*
X146986666Y-89276666D01*
X146939047Y-89419523D01*
X146843809Y-89514761D01*
X146700952Y-89562380D01*
X146605714Y-89562380D01*
X147415238Y-88657619D02*
X147462857Y-88610000D01*
X147558095Y-88562380D01*
X147796190Y-88562380D01*
X147891428Y-88610000D01*
X147939047Y-88657619D01*
X147986666Y-88752857D01*
X147986666Y-88848095D01*
X147939047Y-88990952D01*
X147367619Y-89562380D01*
X147986666Y-89562380D01*
%TO.C,U1*%
X103378095Y-111212380D02*
X103378095Y-112021904D01*
X103425714Y-112117142D01*
X103473333Y-112164761D01*
X103568571Y-112212380D01*
X103759047Y-112212380D01*
X103854285Y-112164761D01*
X103901904Y-112117142D01*
X103949523Y-112021904D01*
X103949523Y-111212380D01*
X104949523Y-112212380D02*
X104378095Y-112212380D01*
X104663809Y-112212380D02*
X104663809Y-111212380D01*
X104568571Y-111355238D01*
X104473333Y-111450476D01*
X104378095Y-111498095D01*
X104140000Y-116292380D02*
X104140000Y-116530476D01*
X103901904Y-116435238D02*
X104140000Y-116530476D01*
X104378095Y-116435238D01*
X103997142Y-116720952D02*
X104140000Y-116530476D01*
X104282857Y-116720952D01*
%TO.C,J3*%
X95551666Y-113752380D02*
X95551666Y-114466666D01*
X95504047Y-114609523D01*
X95408809Y-114704761D01*
X95265952Y-114752380D01*
X95170714Y-114752380D01*
X95932619Y-113752380D02*
X96551666Y-113752380D01*
X96218333Y-114133333D01*
X96361190Y-114133333D01*
X96456428Y-114180952D01*
X96504047Y-114228571D01*
X96551666Y-114323809D01*
X96551666Y-114561904D01*
X96504047Y-114657142D01*
X96456428Y-114704761D01*
X96361190Y-114752380D01*
X96075476Y-114752380D01*
X95980238Y-114704761D01*
X95932619Y-114657142D01*
%TO.C,C2*%
X106513333Y-123137142D02*
X106465714Y-123184761D01*
X106322857Y-123232380D01*
X106227619Y-123232380D01*
X106084761Y-123184761D01*
X105989523Y-123089523D01*
X105941904Y-122994285D01*
X105894285Y-122803809D01*
X105894285Y-122660952D01*
X105941904Y-122470476D01*
X105989523Y-122375238D01*
X106084761Y-122280000D01*
X106227619Y-122232380D01*
X106322857Y-122232380D01*
X106465714Y-122280000D01*
X106513333Y-122327619D01*
X106894285Y-122327619D02*
X106941904Y-122280000D01*
X107037142Y-122232380D01*
X107275238Y-122232380D01*
X107370476Y-122280000D01*
X107418095Y-122327619D01*
X107465714Y-122422857D01*
X107465714Y-122518095D01*
X107418095Y-122660952D01*
X106846666Y-123232380D01*
X107465714Y-123232380D01*
%TO.C,R1*%
X94052380Y-78274166D02*
X93576190Y-78607500D01*
X94052380Y-78845595D02*
X93052380Y-78845595D01*
X93052380Y-78464642D01*
X93100000Y-78369404D01*
X93147619Y-78321785D01*
X93242857Y-78274166D01*
X93385714Y-78274166D01*
X93480952Y-78321785D01*
X93528571Y-78369404D01*
X93576190Y-78464642D01*
X93576190Y-78845595D01*
X94052380Y-77321785D02*
X94052380Y-77893214D01*
X94052380Y-77607500D02*
X93052380Y-77607500D01*
X93195238Y-77702738D01*
X93290476Y-77797976D01*
X93338095Y-77893214D01*
%TO.C,D1*%
X88796904Y-81097380D02*
X88796904Y-80097380D01*
X89035000Y-80097380D01*
X89177857Y-80145000D01*
X89273095Y-80240238D01*
X89320714Y-80335476D01*
X89368333Y-80525952D01*
X89368333Y-80668809D01*
X89320714Y-80859285D01*
X89273095Y-80954523D01*
X89177857Y-81049761D01*
X89035000Y-81097380D01*
X88796904Y-81097380D01*
X90320714Y-81097380D02*
X89749285Y-81097380D01*
X90035000Y-81097380D02*
X90035000Y-80097380D01*
X89939761Y-80240238D01*
X89844523Y-80335476D01*
X89749285Y-80383095D01*
%TO.C,C4*%
X92870833Y-108862142D02*
X92823214Y-108909761D01*
X92680357Y-108957380D01*
X92585119Y-108957380D01*
X92442261Y-108909761D01*
X92347023Y-108814523D01*
X92299404Y-108719285D01*
X92251785Y-108528809D01*
X92251785Y-108385952D01*
X92299404Y-108195476D01*
X92347023Y-108100238D01*
X92442261Y-108005000D01*
X92585119Y-107957380D01*
X92680357Y-107957380D01*
X92823214Y-108005000D01*
X92870833Y-108052619D01*
X93727976Y-108290714D02*
X93727976Y-108957380D01*
X93489880Y-107909761D02*
X93251785Y-108624047D01*
X93870833Y-108624047D01*
%TO.C,C3*%
X110529642Y-94146666D02*
X110577261Y-94194285D01*
X110624880Y-94337142D01*
X110624880Y-94432380D01*
X110577261Y-94575238D01*
X110482023Y-94670476D01*
X110386785Y-94718095D01*
X110196309Y-94765714D01*
X110053452Y-94765714D01*
X109862976Y-94718095D01*
X109767738Y-94670476D01*
X109672500Y-94575238D01*
X109624880Y-94432380D01*
X109624880Y-94337142D01*
X109672500Y-94194285D01*
X109720119Y-94146666D01*
X109624880Y-93813333D02*
X109624880Y-93194285D01*
X110005833Y-93527619D01*
X110005833Y-93384761D01*
X110053452Y-93289523D01*
X110101071Y-93241904D01*
X110196309Y-93194285D01*
X110434404Y-93194285D01*
X110529642Y-93241904D01*
X110577261Y-93289523D01*
X110624880Y-93384761D01*
X110624880Y-93670476D01*
X110577261Y-93765714D01*
X110529642Y-93813333D01*
%TO.C,R2*%
X93813333Y-82307380D02*
X93480000Y-81831190D01*
X93241904Y-82307380D02*
X93241904Y-81307380D01*
X93622857Y-81307380D01*
X93718095Y-81355000D01*
X93765714Y-81402619D01*
X93813333Y-81497857D01*
X93813333Y-81640714D01*
X93765714Y-81735952D01*
X93718095Y-81783571D01*
X93622857Y-81831190D01*
X93241904Y-81831190D01*
X94194285Y-81402619D02*
X94241904Y-81355000D01*
X94337142Y-81307380D01*
X94575238Y-81307380D01*
X94670476Y-81355000D01*
X94718095Y-81402619D01*
X94765714Y-81497857D01*
X94765714Y-81593095D01*
X94718095Y-81735952D01*
X94146666Y-82307380D01*
X94765714Y-82307380D01*
%TO.C,J4*%
X146986666Y-101322380D02*
X146986666Y-102036666D01*
X146939047Y-102179523D01*
X146843809Y-102274761D01*
X146700952Y-102322380D01*
X146605714Y-102322380D01*
X147891428Y-101655714D02*
X147891428Y-102322380D01*
X147653333Y-101274761D02*
X147415238Y-101989047D01*
X148034285Y-101989047D01*
%TO.C,C5*%
X92870833Y-88542142D02*
X92823214Y-88589761D01*
X92680357Y-88637380D01*
X92585119Y-88637380D01*
X92442261Y-88589761D01*
X92347023Y-88494523D01*
X92299404Y-88399285D01*
X92251785Y-88208809D01*
X92251785Y-88065952D01*
X92299404Y-87875476D01*
X92347023Y-87780238D01*
X92442261Y-87685000D01*
X92585119Y-87637380D01*
X92680357Y-87637380D01*
X92823214Y-87685000D01*
X92870833Y-87732619D01*
X93775595Y-87637380D02*
X93299404Y-87637380D01*
X93251785Y-88113571D01*
X93299404Y-88065952D01*
X93394642Y-88018333D01*
X93632738Y-88018333D01*
X93727976Y-88065952D01*
X93775595Y-88113571D01*
X93823214Y-88208809D01*
X93823214Y-88446904D01*
X93775595Y-88542142D01*
X93727976Y-88589761D01*
X93632738Y-88637380D01*
X93394642Y-88637380D01*
X93299404Y-88589761D01*
X93251785Y-88542142D01*
%TO.C,SW1*%
X151407761Y-85153333D02*
X151455380Y-85010476D01*
X151455380Y-84772380D01*
X151407761Y-84677142D01*
X151360142Y-84629523D01*
X151264904Y-84581904D01*
X151169666Y-84581904D01*
X151074428Y-84629523D01*
X151026809Y-84677142D01*
X150979190Y-84772380D01*
X150931571Y-84962857D01*
X150883952Y-85058095D01*
X150836333Y-85105714D01*
X150741095Y-85153333D01*
X150645857Y-85153333D01*
X150550619Y-85105714D01*
X150503000Y-85058095D01*
X150455380Y-84962857D01*
X150455380Y-84724761D01*
X150503000Y-84581904D01*
X150455380Y-84248571D02*
X151455380Y-84010476D01*
X150741095Y-83820000D01*
X151455380Y-83629523D01*
X150455380Y-83391428D01*
X151455380Y-82486666D02*
X151455380Y-83058095D01*
X151455380Y-82772380D02*
X150455380Y-82772380D01*
X150598238Y-82867619D01*
X150693476Y-82962857D01*
X150741095Y-83058095D01*
%TO.C,J5*%
X146986666Y-111422380D02*
X146986666Y-112136666D01*
X146939047Y-112279523D01*
X146843809Y-112374761D01*
X146700952Y-112422380D01*
X146605714Y-112422380D01*
X147939047Y-111422380D02*
X147462857Y-111422380D01*
X147415238Y-111898571D01*
X147462857Y-111850952D01*
X147558095Y-111803333D01*
X147796190Y-111803333D01*
X147891428Y-111850952D01*
X147939047Y-111898571D01*
X147986666Y-111993809D01*
X147986666Y-112231904D01*
X147939047Y-112327142D01*
X147891428Y-112374761D01*
X147796190Y-112422380D01*
X147558095Y-112422380D01*
X147462857Y-112374761D01*
X147415238Y-112327142D01*
D13*
%TO.C,Y1*%
X95587508Y-93324997D02*
X90487508Y-93324997D01*
X95577508Y-106755997D02*
X95587508Y-93324997D01*
X95577508Y-106755997D02*
X90497508Y-106755997D01*
X90497508Y-106755997D02*
X90487508Y-105924997D01*
X90487508Y-93324997D02*
X90487508Y-105924997D01*
%TO.C,U2*%
X104577500Y-74555000D02*
X102927500Y-74555000D01*
X99277500Y-74555000D02*
X99277500Y-110235000D01*
X104577500Y-110235000D02*
X104577500Y-74555000D01*
X100927500Y-74555000D02*
X99277500Y-74555000D01*
X99277500Y-110235000D02*
X104577500Y-110235000D01*
X100927500Y-74555000D02*
G75*
G03*
X102927500Y-74555000I1000000J0D01*
G01*
%TO.C,C1*%
X101338748Y-125195000D02*
X101861252Y-125195000D01*
X101338748Y-123725000D02*
X101861252Y-123725000D01*
%TO.C,J1*%
X113170000Y-127600000D02*
X113170000Y-73100000D01*
X143370000Y-73100000D02*
X143370000Y-127600000D01*
X143370000Y-127600000D02*
X113170000Y-127600000D01*
X113170000Y-73100000D02*
X143370000Y-73100000D01*
%TO.C,J2*%
X145990000Y-92710000D02*
X145990000Y-100390000D01*
X145990000Y-91440000D02*
X145990000Y-90110000D01*
X148650000Y-92710000D02*
X148650000Y-100390000D01*
X145990000Y-90110000D02*
X147320000Y-90110000D01*
X145990000Y-92710000D02*
X148650000Y-92710000D01*
X145990000Y-100390000D02*
X148650000Y-100390000D01*
%TO.C,U1*%
X107617001Y-114863000D02*
X100662999Y-114863000D01*
X107617001Y-118817000D02*
X107617001Y-114863000D01*
X100662999Y-118817000D02*
X107617001Y-118817000D01*
X100662999Y-114863000D02*
X100662999Y-118817000D01*
X99647000Y-120490000D02*
G75*
G03*
X99647000Y-120490000I-127000J0D01*
G01*
%TO.C,J3*%
X92650000Y-118110000D02*
X92650000Y-128330000D01*
X92650000Y-115510000D02*
X93980000Y-115510000D01*
X95250000Y-115510000D02*
X97850000Y-115510000D01*
X92650000Y-116840000D02*
X92650000Y-115510000D01*
X97850000Y-115510000D02*
X97850000Y-128330000D01*
X95250000Y-118110000D02*
X95250000Y-115510000D01*
X92650000Y-118110000D02*
X95250000Y-118110000D01*
X92650000Y-128330000D02*
X97850000Y-128330000D01*
%TO.C,C2*%
X106418748Y-123725000D02*
X106941252Y-123725000D01*
X106418748Y-125195000D02*
X106941252Y-125195000D01*
%TO.C,R1*%
X94515000Y-78334564D02*
X94515000Y-77880436D01*
X95985000Y-78334564D02*
X95985000Y-77880436D01*
%TO.C,D1*%
X90495000Y-85190000D02*
X90495000Y-82505000D01*
X88575000Y-82505000D02*
X88575000Y-85190000D01*
X88575000Y-85190000D02*
X90495000Y-85190000D01*
%TO.C,C4*%
X92776248Y-110920000D02*
X93298752Y-110920000D01*
X92776248Y-109450000D02*
X93298752Y-109450000D01*
%TO.C,C3*%
X109012500Y-94241252D02*
X109012500Y-93718748D01*
X107542500Y-94241252D02*
X107542500Y-93718748D01*
%TO.C,R2*%
X93752936Y-84240000D02*
X94207064Y-84240000D01*
X93752936Y-82770000D02*
X94207064Y-82770000D01*
%TO.C,J4*%
X148362929Y-107060000D02*
X148760000Y-107060000D01*
X148760000Y-107950000D02*
X151420000Y-107950000D01*
X148430000Y-104520000D02*
X148760000Y-104520000D01*
X148362929Y-109600000D02*
X148760000Y-109600000D01*
X151420000Y-110550000D02*
X151420000Y-102810000D01*
X148760000Y-110550000D02*
X151420000Y-110550000D01*
X148760000Y-105410000D02*
X151420000Y-105410000D01*
X148760000Y-102810000D02*
X148760000Y-110550000D01*
X146050000Y-104140000D02*
X146050000Y-102870000D01*
X148362929Y-108840000D02*
X148760000Y-108840000D01*
X146050000Y-102870000D02*
X147320000Y-102870000D01*
X148430000Y-103760000D02*
X148760000Y-103760000D01*
X148362929Y-106300000D02*
X148760000Y-106300000D01*
X151420000Y-102810000D02*
X148760000Y-102810000D01*
%TO.C,C5*%
X92776248Y-89130000D02*
X93298752Y-89130000D01*
X92776248Y-90600000D02*
X93298752Y-90600000D01*
%TO.C,SW1*%
X144670000Y-79620000D02*
X149970000Y-79620000D01*
X149970000Y-79620000D02*
X149970000Y-88020000D01*
X149970000Y-88020000D02*
X144670000Y-88020000D01*
X144670000Y-88020000D02*
X144670000Y-79620000D01*
%TO.C,J5*%
X145990000Y-114300000D02*
X145990000Y-112970000D01*
X145990000Y-112970000D02*
X147320000Y-112970000D01*
X145990000Y-118170000D02*
X148650000Y-118170000D01*
X145990000Y-115570000D02*
X148650000Y-115570000D01*
X148650000Y-115570000D02*
X148650000Y-118170000D01*
X145990000Y-115570000D02*
X145990000Y-118170000D01*
%TD*%
M02*
