M48
; DRILL file {KiCad (6.0.0)} date Fri Feb 18 15:42:36 2022
; FORMAT={-:-/ absolute / inch / decimal}
; #@! TF.CreationDate,2022-02-18T15:42:36-07:00
; #@! TF.GenerationSoftware,Kicad,Pcbnew,(6.0.0)
; #@! TF.FileFunction,Plated,1,2,PTH
FMAT,2
INCH
; #@! TA.AperFunction,Plated,PTH,ViaDrill
T1C0.0157
; #@! TA.AperFunction,Plated,PTH,ViaDrill
T2C0.0315
; #@! TA.AperFunction,Plated,PTH,ComponentDrill
T3C0.0315
; #@! TA.AperFunction,Plated,PTH,ComponentDrill
T4C0.0394
; #@! TA.AperFunction,Plated,PTH,ComponentDrill
T5C0.0945
; #@! TA.AperFunction,Plated,PTH,ComponentDrill
T6C0.1378
%
G90
G05
T1
X3.575Y-3.2
X3.65Y-4.45
X4.325Y-4.375
X4.325Y-4.425
T2
X3.525Y-3.45
X3.7877Y-4.3627
T3
X3.8629Y-2.9876
X3.8629Y-3.0876
X3.8629Y-3.1876
X3.8629Y-3.2876
X3.8629Y-3.3876
X3.8629Y-3.4876
X3.8629Y-3.5876
X3.8629Y-3.6876
X3.8629Y-3.7876
X3.8629Y-3.8876
X3.8629Y-3.9876
X3.8629Y-4.0876
X3.8629Y-4.1876
X3.8629Y-4.2876
X4.1629Y-2.9876
X4.1629Y-3.0876
X4.1629Y-3.1876
X4.1629Y-3.2876
X4.1629Y-3.3876
X4.1629Y-3.4876
X4.1629Y-3.5876
X4.1629Y-3.6876
X4.1629Y-3.7876
X4.1629Y-3.8876
X4.1629Y-3.9876
X4.1629Y-4.0876
X4.1629Y-4.1876
X4.1629Y-4.2876
X5.8Y-3.2
X5.8Y-3.4
T4
X3.7Y-4.6
X3.7Y-4.7
X3.7Y-4.8
X3.7Y-4.9
X3.7Y-5.0
X3.8Y-4.6
X3.8Y-4.7
X3.8Y-4.8
X3.8Y-4.9
X3.8Y-5.0
X5.8Y-3.6
X5.8Y-3.7
X5.8Y-3.8
X5.8Y-3.9
X5.8Y-4.1
X5.8Y-4.2
X5.8Y-4.3
X5.8Y-4.5
X5.8Y-4.6
T5
X4.8Y-3.0
X5.3Y-3.0
T6
X3.425Y-2.9
X3.425Y-5.0
X5.925Y-2.9
X5.925Y-5.0
T0
M30
